# xmcd
#
# Track frame offsets:
#  150
#  27861
#  59525
#  86152
#  117023
#  145393
#  172588
#  216892
#
# Disc length: 3086 seconds
#
# Revision: 0
# Processed by: cddbd v1.5.1PL2 Copyright (c) Steve Scherf et al.
# Submitted via: Collectorz.com_Music_Collector 6.9
#
DISCID=690c0c08
DTITLE=Wishbone Ash - The King Will Come [CD1)
DYEAR=2005
DGENRE=Progressive Rock
TTITLE0=Come Rain, Come Shine
TTITLE1=Lifeline (Live)
TTITLE2=Living Proof
TTITLE3=Insomnia
TTITLE4=You See Red
TTITLE5=Throw Down the Sword
TTITLE6=Time Was
TTITLE7=Real Guitars Have Wings
EXTD=
EXTT0=
EXTT1=
EXTT2=
EXTT3=
EXTT4=
EXTT5=
EXTT6=
EXTT7=
PLAYORDER=
